<?xml version="1.0" encoding="UTF-8"?>
<!DOCTYPE svg PUBLIC "-//W3C//DTD SVG 1.1//EN" "http://www.w3.org/Graphics/SVG/1.1/DTD/svg11.dtd">
<!-- Creator: CorelDRAW X5 -->
<svg xmlns="http://www.w3.org/2000/svg" xml:space="preserve" width="32px" height="32px" style="shape-rendering:geometricPrecision; text-rendering:geometricPrecision; image-rendering:optimizeQuality; fill-rule:evenodd; clip-rule:evenodd"
viewBox="0 0 32 32"
 xmlns:xlink="http://www.w3.org/1999/xlink">
 <defs>
  <style type="text/css">
   <![CDATA[
    .str0 {stroke:black;stroke-width:0.0118116}
    .fil1 {fill:black}
    .fil0 {fill:#2ABF5E}
   ]]>
  </style>
 </defs>
 <g id="Слой_x0020_1">
  <metadata id="CorelCorpID_0Corel-Layer"/>
  <polygon class="fil0 str0" points="4.98568,0.216152 7.45194,15.9634 9.91702,31.7106 4.98568,31.7106 0.0555145,31.7106 2.5206,15.9634 "/>
  <polygon class="fil0 str0" points="12.3313,4.68684 14.7964,18.2383 17.2615,31.7898 12.3313,31.7898 7.39997,31.7898 9.86505,18.2383 "/>
  <polygon class="fil1 str0" points="4.99749,10.5289 6.48575,21.1062 7.9752,31.6834 4.99749,31.6834 2.01978,31.6834 3.50923,21.1062 "/>
  <polygon class="fil1 str0" points="12.1034,10.4509 13.5916,21.0282 15.0811,31.6055 12.1034,31.6055 9.12565,31.6055 10.6151,21.0282 "/>
  <rect class="fil0 str0" transform="matrix(1.74171 -0.270575 0.304557 1.88606 15.7906 5.09362)" width="5.39082" height="4.9219"/>
  <rect class="fil0 str0" transform="matrix(0.958304 -0.122016 0.16757 0.850522 17.2455 14.3016)" width="11.4856" height="19.3769"/>
  <rect class="fil1 str0" transform="matrix(0.961648 -0.161997 0.132107 0.812019 20.1697 15.6973)" width="6.09361" height="15.0787"/>
  <rect class="fil1 str0" transform="matrix(1.26557 -0.209513 0.209513 1.26557 19.0473 7.31073)" width="3.51631" height="3.51631"/>
 </g>
</svg>
